<svg width="19" height="31" viewBox="0 0 19 31" fill="none" xmlns="http://www.w3.org/2000/svg">
<path opacity="0.1" d="M17.2914 17.7677C16.1941 15.819 14.387 14.3989 12.2025 13.7703C11.3064 13.5123 10.4102 13.3814 9.53894 13.3814C8.19287 13.3814 7.06929 13.689 6.19837 14.0657C7.038 10.9919 9.05501 5.6881 13.0734 5.09082C13.4455 5.03548 13.7501 4.76642 13.852 4.40423L14.7301 1.26326C14.8042 0.997631 14.7603 0.713303 14.6088 0.482786C14.4576 0.25227 14.2141 0.0984654 13.9409 0.0610638C13.6447 0.020609 13.3425 0 13.0425 0C8.21958 0 3.44324 5.03395 1.42737 12.2418C0.244641 16.4705 -0.102278 22.828 2.81238 26.8303C4.44278 29.0691 6.82236 30.2652 9.88357 30.3842C9.89617 30.3846 9.90838 30.385 9.92136 30.385C13.6985 30.385 17.0487 27.8409 18.0677 24.1989C18.6756 22.0215 18.4001 19.7378 17.2914 17.7677Z" fill="#EE5514"/>
</svg>
